<?xml version="1.0" encoding="UTF-8" standalone="no"?><!DOCTYPE svg PUBLIC "-//W3C//DTD SVG 1.1//EN" "http://www.w3.org/Graphics/SVG/1.1/DTD/svg11.dtd"><!-- Generated by graphviz version 2.40.1 (20161225.0304)
 --><!-- Title: G Pages: 1 --><svg xmlns="http://www.w3.org/2000/svg" xmlns:xlink="http://www.w3.org/1999/xlink" width="939pt" height="872pt" viewBox="0.00 0.00 939.34 872.07">
<g id="graph0" class="graph" transform="scale(1 1) rotate(0) translate(4 868.0703)">
<title>G</title>
<polygon fill="#ffffff" stroke="transparent" points="-4,4 -4,-868.0703 935.3399,-868.0703 935.3399,4 -4,4"/>
<!-- start -->
<g id="node1" class="node">
<title>start</title>
<ellipse fill="none" stroke="#000000" cx="30.8777" cy="-836.4094" rx="27.8228" ry="27.8228"/>
<text text-anchor="middle" x="30.8777" y="-832.2094" font-family="Times,serif" font-size="14.00" fill="#000000">start</text>
</g>
<!-- sleep -->
<g id="node2" class="node">
<title>sleep</title>
<ellipse fill="none" stroke="#000000" cx="30.8777" cy="-740.8708" rx="30.7558" ry="30.7558"/>
<text text-anchor="middle" x="30.8777" y="-736.6708" font-family="Times,serif" font-size="14.00" fill="#000000">sleep</text>
</g>
<!-- start&#45;&gt;sleep -->
<g id="edge1" class="edge">
<title>start-&gt;sleep</title>
<path fill="none" stroke="#000000" d="M30.8777,-808.5188C30.8777,-800.2848 30.8777,-791.0916 30.8777,-782.2016"/>
<polygon fill="#000000" stroke="#000000" points="34.3778,-781.9802 30.8777,-771.9802 27.3778,-781.9802 34.3778,-781.9802"/>
</g>
<!-- eat -->
<g id="node3" class="node">
<title>eat</title>
<ellipse fill="none" stroke="#000000" cx="291.8777" cy="-634.8995" rx="22.0891" ry="22.0891"/>
<text text-anchor="middle" x="291.8777" y="-630.6995" font-family="Times,serif" font-size="14.00" fill="#000000">eat</text>
</g>
<!-- sleep&#45;&gt;eat -->
<g id="edge2" class="edge">
<title>sleep-&gt;eat</title>
<path fill="none" stroke="#000000" d="M59.5558,-729.2268C109.2146,-709.0644 210.7581,-667.8356 261.5444,-647.2154"/>
<polygon fill="#000000" stroke="#000000" points="263.0457,-650.3834 270.9944,-643.3785 260.4123,-643.8976 263.0457,-650.3834"/>
<text text-anchor="middle" x="220.6026" y="-679.3931" font-family="Times,serif" font-size="14.00" fill="#000000">hour == 6</text>
</g>
<!-- travel -->
<g id="node4" class="node">
<title>travel</title>
<ellipse fill="none" stroke="#000000" cx="291.8777" cy="-498.3545" rx="33.0411" ry="33.0411"/>
<text text-anchor="middle" x="291.8777" y="-494.1545" font-family="Times,serif" font-size="14.00" fill="#000000">travel</text>
</g>
<!-- sleep&#45;&gt;travel -->
<g id="edge3" class="edge">
<title>sleep-&gt;travel</title>
<path fill="none" stroke="#000000" d="M53.5831,-719.7733C100.1576,-676.4972 206.6047,-577.5885 260.0408,-527.9367"/>
<polygon fill="#000000" stroke="#000000" points="262.5834,-530.3519 267.5267,-520.9809 257.8186,-525.2239 262.5834,-530.3519"/>
<text text-anchor="middle" x="196.6026" y="-630.6995" font-family="Times,serif" font-size="14.00" fill="#000000">hour == 7</text>
</g>
<!-- eat&#45;&gt;travel -->
<g id="edge4" class="edge">
<title>eat-&gt;travel</title>
<path fill="none" stroke="#000000" d="M291.8777,-612.3519C291.8777,-593.1508 291.8777,-565.0196 291.8777,-541.5072"/>
<polygon fill="#000000" stroke="#000000" points="295.3778,-541.4164 291.8777,-531.4164 288.3778,-541.4164 295.3778,-541.4164"/>
</g>
<!-- end_of_the_day -->
<g id="node9" class="node">
<title>end_of_the_day</title>
<ellipse fill="none" stroke="#000000" cx="419.8777" cy="-498.3545" rx="73.0164" ry="73.0164"/>
<ellipse fill="none" stroke="#000000" cx="419.8777" cy="-498.3545" rx="77.0035" ry="77.0035"/>
<text text-anchor="middle" x="419.8777" y="-494.1545" font-family="Times,serif" font-size="14.00" fill="#000000">end_of_the_day</text>
</g>
<!-- eat&#45;&gt;end_of_the_day -->
<g id="edge13" class="edge">
<title>eat-&gt;end_of_the_day</title>
<path fill="none" stroke="#000000" d="M307.3175,-618.429C320.5814,-604.2796 340.596,-582.9288 360.0876,-562.136"/>
<polygon fill="#000000" stroke="#000000" points="362.6626,-564.5067 366.9483,-554.8173 357.5557,-559.7193 362.6626,-564.5067"/>
</g>
<!-- breakdown -->
<g id="node5" class="node">
<title>breakdown</title>
<ellipse fill="none" stroke="#000000" cx="210.8777" cy="-259.6683" rx="53.877" ry="53.877"/>
<text text-anchor="middle" x="210.8777" y="-255.4683" font-family="Times,serif" font-size="14.00" fill="#000000">breakdown</text>
</g>
<!-- travel&#45;&gt;breakdown -->
<g id="edge5" class="edge">
<title>travel-&gt;breakdown</title>
<path fill="none" stroke="#000000" d="M266.4488,-477.0606C247.5267,-459.4545 223.1717,-432.6249 212.2967,-403.1031 203.1042,-378.1491 201.3339,-349.0554 202.3931,-323.6178"/>
<polygon fill="#000000" stroke="#000000" points="205.9046,-323.5154 202.9801,-313.3322 198.9159,-323.1165 205.9046,-323.5154"/>
<text text-anchor="middle" x="286.6682" y="-373.7031" font-family="Times,serif" font-size="14.00" fill="#000000">current_location == UCU </text>
<text text-anchor="middle" x="286.6682" y="-356.9031" font-family="Times,serif" font-size="14.00" fill="#000000"> if deadlines &gt;= 3</text>
</g>
<!-- study -->
<g id="node6" class="node">
<title>study</title>
<ellipse fill="none" stroke="#000000" cx="255.8777" cy="-49.1167" rx="31.9224" ry="31.9224"/>
<text text-anchor="middle" x="255.8777" y="-44.9167" font-family="Times,serif" font-size="14.00" fill="#000000">study</text>
</g>
<!-- travel&#45;&gt;study -->
<g id="edge7" class="edge">
<title>travel-&gt;study</title>
<path fill="none" stroke="#000000" d="M304.4819,-467.6535C311.6459,-452.5602 321.6394,-434.7341 333.8777,-421.1031 343.2671,-410.6452 353.3548,-415.5524 359.8777,-403.1031 373.739,-376.6478 376.6294,-360.6295 359.8777,-335.9031 347.7771,-318.0421 328.7503,-334.3572 314.7967,-317.9031 286.1276,-284.0966 268.0624,-158.0636 260.2925,-91.2767"/>
<polygon fill="#000000" stroke="#000000" points="263.7416,-90.6301 259.1338,-81.0898 256.7864,-91.4213 263.7416,-90.6301"/>
<text text-anchor="middle" x="386.9182" y="-255.4683" font-family="Times,serif" font-size="14.00" fill="#000000">current_location == UCU</text>
</g>
<!-- hug_the_cat -->
<g id="node7" class="node">
<title>hug_the_cat</title>
<ellipse fill="none" stroke="#000000" cx="700.8777" cy="-259.6683" rx="58.4706" ry="58.4706"/>
<text text-anchor="middle" x="700.8777" y="-255.4683" font-family="Times,serif" font-size="14.00" fill="#000000">hug_the_cat</text>
</g>
<!-- travel&#45;&gt;hug_the_cat -->
<g id="edge10" class="edge">
<title>travel-&gt;hug_the_cat</title>
<path fill="none" stroke="#000000" d="M301.3334,-466.345C307.8255,-450.1222 318.1703,-431.6674 333.8777,-421.1031 393.6231,-380.9201 426.9703,-427.036 494.8777,-403.1031 553.8326,-382.3255 611.3937,-339.8016 650.6148,-306.4233"/>
<polygon fill="#000000" stroke="#000000" points="652.9188,-309.0581 658.2094,-299.8787 648.3492,-303.7553 652.9188,-309.0581"/>
<text text-anchor="middle" x="687.9992" y="-390.5031" font-family="Times,serif" font-size="14.00" fill="#000000">probability &gt; 0.3 </text>
<text text-anchor="middle" x="687.9992" y="-373.7031" font-family="Times,serif" font-size="14.00" fill="#000000"> energy &lt;= 40 </text>
<text text-anchor="middle" x="687.9992" y="-356.9031" font-family="Times,serif" font-size="14.00" fill="#000000"> happiness &lt;= 40 </text>
<text text-anchor="middle" x="687.9992" y="-340.1031" font-family="Times,serif" font-size="14.00" fill="#000000"> current_location == Home</text>
</g>
<!-- breakdown&#45;&gt;study -->
<g id="edge6" class="edge">
<title>breakdown-&gt;study</title>
<path fill="none" stroke="#000000" d="M222.175,-206.809C229.8903,-170.7098 239.965,-123.571 247.0832,-90.2655"/>
<polygon fill="#000000" stroke="#000000" points="250.5241,-90.9116 249.1915,-80.4009 243.6787,-89.4485 250.5241,-90.9116"/>
</g>
<!-- study&#45;&gt;eat -->
<g id="edge9" class="edge">
<title>study-&gt;eat</title>
<path fill="none" stroke="#000000" d="M229.9432,-68.1968C163.0496,-119.8952 -6.1911,-267.8851 51.2967,-403.1031 95.1656,-506.288 209.9688,-585.8139 263.5596,-618.5724"/>
<polygon fill="#000000" stroke="#000000" points="261.8473,-621.6269 272.2203,-623.7838 265.4564,-615.629 261.8473,-621.6269"/>
<text text-anchor="middle" x="125.6682" y="-373.7031" font-family="Times,serif" font-size="14.00" fill="#000000">current_location == UCU </text>
<text text-anchor="middle" x="125.6682" y="-356.9031" font-family="Times,serif" font-size="14.00" fill="#000000"> hour in range (14, 22)</text>
</g>
<!-- study&#45;&gt;travel -->
<g id="edge8" class="edge">
<title>study-&gt;travel</title>
<path fill="none" stroke="#000000" d="M285.6502,-60.9416C332.6485,-81.4461 422.4319,-128.5227 458.8777,-201.4335 482.0225,-247.7353 477.9322,-269.7734 458.8777,-317.9031 439.7574,-366.199 421.7866,-373.8302 378.8777,-403.1031 361.0834,-415.2425 349.9771,-406.792 333.8777,-421.1031 322.6767,-431.0599 313.89,-444.7408 307.3131,-457.8252"/>
<polygon fill="#000000" stroke="#000000" points="303.9997,-456.6466 302.9118,-467.1855 310.3344,-459.6253 303.9997,-456.6466"/>
<text text-anchor="middle" x="545.9182" y="-255.4683" font-family="Times,serif" font-size="14.00" fill="#000000">current_location == UCU</text>
</g>
<!-- stretching -->
<g id="node8" class="node">
<title>stretching</title>
<ellipse fill="none" stroke="#000000" cx="742.8777" cy="-49.1167" rx="49.2338" ry="49.2338"/>
<text text-anchor="middle" x="742.8777" y="-44.9167" font-family="Times,serif" font-size="14.00" fill="#000000">stretching</text>
</g>
<!-- hug_the_cat&#45;&gt;stretching -->
<g id="edge11" class="edge">
<title>hug_the_cat-&gt;stretching</title>
<path fill="none" stroke="#000000" d="M669.9502,-210.0483C656.4217,-181.7193 646.4946,-146.0239 660.6347,-116.2335 667.5062,-101.7565 679.198,-89.3709 691.6429,-79.326"/>
<polygon fill="#000000" stroke="#000000" points="694.0402,-81.9004 699.8867,-73.0647 689.8062,-76.326 694.0402,-81.9004"/>
<text text-anchor="middle" x="735.9992" y="-170.8335" font-family="Times,serif" font-size="14.00" fill="#000000">probability &gt; 0.5 </text>
<text text-anchor="middle" x="735.9992" y="-154.0335" font-family="Times,serif" font-size="14.00" fill="#000000"> energy &gt;= 20 </text>
<text text-anchor="middle" x="735.9992" y="-137.2335" font-family="Times,serif" font-size="14.00" fill="#000000"> deadlines == 0 </text>
<text text-anchor="middle" x="735.9992" y="-120.4335" font-family="Times,serif" font-size="14.00" fill="#000000"> current_location == Home</text>
</g>
<!-- stretching&#45;&gt;eat -->
<g id="edge12" class="edge">
<title>stretching-&gt;eat</title>
<path fill="none" stroke="#000000" d="M783.2973,-77.5753C795.1065,-88.2117 806.5357,-101.3667 812.8777,-116.2335 863.5162,-234.9406 840.2467,-296.2464 767.8777,-403.1031 660.5233,-561.6176 412.7667,-615.6341 324.1359,-630.2636"/>
<polygon fill="#000000" stroke="#000000" points="323.4609,-626.8269 314.1362,-631.8568 324.5623,-633.7397 323.4609,-626.8269"/>
<text text-anchor="middle" x="870.1088" y="-373.7031" font-family="Times,serif" font-size="14.00" fill="#000000">hour in range(21, 25) </text>
<text text-anchor="middle" x="870.1088" y="-356.9031" font-family="Times,serif" font-size="14.00" fill="#000000"> deadlines == 0</text>
</g>
</g>
</svg>